<mxfile host="app.diagrams.net" modified="2020-12-23T11:47:40.764Z" agent="5.0 (Windows NT 10.0; Win64; x64) AppleWebKit/537.36 (KHTML, like Gecko) Chrome/87.0.4280.88 Safari/537.36 Edg/87.0.664.66" etag="4m2adzrxmDpikbac1rLz" version="14.1.1" type="github" pages="2">
  <diagram id="C5RBs43oDa-KdzZeNtuy" name="Sign in">
    <mxGraphModel dx="2031" dy="1134" grid="1" gridSize="10" guides="1" tooltips="1" connect="1" arrows="1" fold="1" page="1" pageScale="1" pageWidth="827" pageHeight="1169" math="0" shadow="0">
      <root>
        <mxCell id="WIyWlLk6GJQsqaUBKTNV-0" />
        <mxCell id="WIyWlLk6GJQsqaUBKTNV-1" parent="WIyWlLk6GJQsqaUBKTNV-0" />
        <mxCell id="WIyWlLk6GJQsqaUBKTNV-2" value="" style="rounded=0;html=1;jettySize=auto;orthogonalLoop=1;fontSize=11;endArrow=block;endFill=0;endSize=8;strokeWidth=1;shadow=0;labelBackgroundColor=none;edgeStyle=orthogonalEdgeStyle;" parent="WIyWlLk6GJQsqaUBKTNV-1" source="WIyWlLk6GJQsqaUBKTNV-3" target="WIyWlLk6GJQsqaUBKTNV-6" edge="1">
          <mxGeometry relative="1" as="geometry" />
        </mxCell>
        <mxCell id="WIyWlLk6GJQsqaUBKTNV-3" value="Open App" style="rounded=1;whiteSpace=wrap;html=1;fontSize=12;glass=0;strokeWidth=1;shadow=0;fillColor=#dae8fc;strokeColor=#6c8ebf;" parent="WIyWlLk6GJQsqaUBKTNV-1" vertex="1">
          <mxGeometry x="109" y="359" width="120" height="40" as="geometry" />
        </mxCell>
        <mxCell id="WIyWlLk6GJQsqaUBKTNV-4" value="Yes" style="rounded=0;html=1;jettySize=auto;orthogonalLoop=1;fontSize=11;endArrow=block;endFill=0;endSize=8;strokeWidth=1;shadow=0;labelBackgroundColor=none;edgeStyle=orthogonalEdgeStyle;" parent="WIyWlLk6GJQsqaUBKTNV-1" source="WIyWlLk6GJQsqaUBKTNV-6" edge="1">
          <mxGeometry y="20" relative="1" as="geometry">
            <mxPoint as="offset" />
            <mxPoint x="169" y="569" as="targetPoint" />
          </mxGeometry>
        </mxCell>
        <mxCell id="WIyWlLk6GJQsqaUBKTNV-5" value="No" style="edgeStyle=orthogonalEdgeStyle;rounded=0;html=1;jettySize=auto;orthogonalLoop=1;fontSize=11;endArrow=block;endFill=0;endSize=8;strokeWidth=1;shadow=0;labelBackgroundColor=none;" parent="WIyWlLk6GJQsqaUBKTNV-1" source="WIyWlLk6GJQsqaUBKTNV-6" edge="1">
          <mxGeometry y="10" relative="1" as="geometry">
            <mxPoint as="offset" />
            <mxPoint x="269" y="489" as="targetPoint" />
          </mxGeometry>
        </mxCell>
        <mxCell id="WIyWlLk6GJQsqaUBKTNV-6" value="New User" style="rhombus;whiteSpace=wrap;html=1;shadow=0;fontFamily=Helvetica;fontSize=12;align=center;strokeWidth=1;spacing=6;spacingTop=-4;perimeterSpacing=1;rounded=1;" parent="WIyWlLk6GJQsqaUBKTNV-1" vertex="1">
          <mxGeometry x="119" y="449" width="100" height="80" as="geometry" />
        </mxCell>
        <mxCell id="yncz-0Nj1sspW0BE_YOx-1" value="onboarding" style="rounded=1;whiteSpace=wrap;html=1;fontSize=12;glass=0;strokeWidth=1;shadow=0;" vertex="1" parent="WIyWlLk6GJQsqaUBKTNV-1">
          <mxGeometry x="109" y="569" width="120" height="40" as="geometry" />
        </mxCell>
        <mxCell id="yncz-0Nj1sspW0BE_YOx-6" value="" style="rounded=0;html=1;jettySize=auto;orthogonalLoop=1;fontSize=11;endArrow=block;endFill=0;endSize=8;strokeWidth=1;shadow=0;labelBackgroundColor=none;edgeStyle=orthogonalEdgeStyle;" edge="1" parent="WIyWlLk6GJQsqaUBKTNV-1">
          <mxGeometry y="20" relative="1" as="geometry">
            <mxPoint as="offset" />
            <mxPoint x="169" y="609" as="sourcePoint" />
            <mxPoint x="169" y="649" as="targetPoint" />
          </mxGeometry>
        </mxCell>
        <mxCell id="yncz-0Nj1sspW0BE_YOx-16" value="Yes" style="edgeStyle=orthogonalEdgeStyle;rounded=0;orthogonalLoop=1;jettySize=auto;html=1;entryX=0;entryY=0.25;entryDx=0;entryDy=0;fontColor=#000000;shadow=0;strokeWidth=1;labelBackgroundColor=none;endFill=0;endArrow=block;endSize=8;" edge="1" parent="WIyWlLk6GJQsqaUBKTNV-1" source="yncz-0Nj1sspW0BE_YOx-7" target="yncz-0Nj1sspW0BE_YOx-11">
          <mxGeometry x="-0.7778" y="10" relative="1" as="geometry">
            <mxPoint as="offset" />
          </mxGeometry>
        </mxCell>
        <mxCell id="yncz-0Nj1sspW0BE_YOx-7" value="Have an account?" style="rhombus;whiteSpace=wrap;html=1;rounded=1;" vertex="1" parent="WIyWlLk6GJQsqaUBKTNV-1">
          <mxGeometry x="129" y="649" width="80" height="80" as="geometry" />
        </mxCell>
        <mxCell id="yncz-0Nj1sspW0BE_YOx-8" value="No" style="rounded=0;html=1;jettySize=auto;orthogonalLoop=1;fontSize=11;endArrow=block;endFill=0;endSize=8;strokeWidth=1;shadow=0;labelBackgroundColor=none;edgeStyle=orthogonalEdgeStyle;" edge="1" parent="WIyWlLk6GJQsqaUBKTNV-1">
          <mxGeometry y="20" relative="1" as="geometry">
            <mxPoint as="offset" />
            <mxPoint x="169" y="729" as="sourcePoint" />
            <mxPoint x="169" y="769" as="targetPoint" />
          </mxGeometry>
        </mxCell>
        <mxCell id="yncz-0Nj1sspW0BE_YOx-15" style="edgeStyle=orthogonalEdgeStyle;rounded=0;orthogonalLoop=1;jettySize=auto;html=1;exitX=1;exitY=0.5;exitDx=0;exitDy=0;entryX=0;entryY=0.5;entryDx=0;entryDy=0;fontColor=#000000;shadow=0;strokeWidth=1;labelBackgroundColor=none;endFill=0;endArrow=block;endSize=8;" edge="1" parent="WIyWlLk6GJQsqaUBKTNV-1" source="yncz-0Nj1sspW0BE_YOx-9" target="yncz-0Nj1sspW0BE_YOx-11">
          <mxGeometry relative="1" as="geometry" />
        </mxCell>
        <mxCell id="yncz-0Nj1sspW0BE_YOx-9" value="Sign up" style="rounded=1;whiteSpace=wrap;html=1;" vertex="1" parent="WIyWlLk6GJQsqaUBKTNV-1">
          <mxGeometry x="109" y="769" width="120" height="40" as="geometry" />
        </mxCell>
        <mxCell id="yncz-0Nj1sspW0BE_YOx-28" value="Yes" style="edgeStyle=orthogonalEdgeStyle;rounded=0;orthogonalLoop=1;jettySize=auto;html=1;exitX=1;exitY=0.5;exitDx=0;exitDy=0;entryX=1;entryY=0.5;entryDx=0;entryDy=0;fontColor=#000000;jumpStyle=none;shadow=0;verticalAlign=bottom;strokeWidth=1;labelBackgroundColor=none;endFill=0;endArrow=block;endSize=8;" edge="1" parent="WIyWlLk6GJQsqaUBKTNV-1" source="yncz-0Nj1sspW0BE_YOx-10" target="yncz-0Nj1sspW0BE_YOx-26">
          <mxGeometry x="-0.954" y="10" relative="1" as="geometry">
            <Array as="points">
              <mxPoint x="719" y="489" />
              <mxPoint x="719" y="739" />
            </Array>
            <mxPoint as="offset" />
          </mxGeometry>
        </mxCell>
        <mxCell id="yncz-0Nj1sspW0BE_YOx-10" value="Already signed in?" style="rhombus;whiteSpace=wrap;html=1;rounded=1;sketch=0;shadow=0;" vertex="1" parent="WIyWlLk6GJQsqaUBKTNV-1">
          <mxGeometry x="269" y="449" width="80" height="80" as="geometry" />
        </mxCell>
        <mxCell id="yncz-0Nj1sspW0BE_YOx-18" style="edgeStyle=orthogonalEdgeStyle;rounded=0;orthogonalLoop=1;jettySize=auto;html=1;exitX=1;exitY=0.5;exitDx=0;exitDy=0;entryX=0;entryY=0.5;entryDx=0;entryDy=0;fontColor=#000000;shadow=0;strokeWidth=1;labelBackgroundColor=none;endFill=0;endArrow=block;endSize=8;" edge="1" parent="WIyWlLk6GJQsqaUBKTNV-1" source="yncz-0Nj1sspW0BE_YOx-11" target="yncz-0Nj1sspW0BE_YOx-17">
          <mxGeometry relative="1" as="geometry" />
        </mxCell>
        <mxCell id="yncz-0Nj1sspW0BE_YOx-27" style="edgeStyle=orthogonalEdgeStyle;rounded=0;orthogonalLoop=1;jettySize=auto;html=1;exitX=0.5;exitY=1;exitDx=0;exitDy=0;fontColor=#000000;shadow=0;verticalAlign=bottom;strokeWidth=1;labelBackgroundColor=none;endFill=0;endArrow=block;endSize=8;" edge="1" parent="WIyWlLk6GJQsqaUBKTNV-1" source="yncz-0Nj1sspW0BE_YOx-11" target="yncz-0Nj1sspW0BE_YOx-26">
          <mxGeometry relative="1" as="geometry">
            <Array as="points">
              <mxPoint x="349" y="679" />
              <mxPoint x="409" y="679" />
            </Array>
          </mxGeometry>
        </mxCell>
        <mxCell id="yncz-0Nj1sspW0BE_YOx-11" value="Sign in" style="rounded=1;whiteSpace=wrap;html=1;" vertex="1" parent="WIyWlLk6GJQsqaUBKTNV-1">
          <mxGeometry x="289" y="579" width="120" height="40" as="geometry" />
        </mxCell>
        <mxCell id="yncz-0Nj1sspW0BE_YOx-12" value="No" style="rounded=0;html=1;jettySize=auto;orthogonalLoop=1;fontSize=11;endArrow=block;endFill=0;endSize=8;strokeWidth=1;shadow=0;labelBackgroundColor=none;edgeStyle=orthogonalEdgeStyle;entryX=0.5;entryY=0;entryDx=0;entryDy=0;" edge="1" parent="WIyWlLk6GJQsqaUBKTNV-1" source="yncz-0Nj1sspW0BE_YOx-10" target="yncz-0Nj1sspW0BE_YOx-11">
          <mxGeometry x="0.0004" y="15" relative="1" as="geometry">
            <mxPoint as="offset" />
            <mxPoint x="349" y="489" as="sourcePoint" />
            <mxPoint x="389" y="489" as="targetPoint" />
          </mxGeometry>
        </mxCell>
        <mxCell id="yncz-0Nj1sspW0BE_YOx-19" value="Yes" style="edgeStyle=orthogonalEdgeStyle;rounded=0;orthogonalLoop=1;jettySize=auto;html=1;exitX=1;exitY=0.5;exitDx=0;exitDy=0;fontColor=#000000;shadow=0;strokeWidth=1;labelBackgroundColor=none;endFill=0;endArrow=block;endSize=8;entryX=0;entryY=0.5;entryDx=0;entryDy=0;" edge="1" parent="WIyWlLk6GJQsqaUBKTNV-1" source="yncz-0Nj1sspW0BE_YOx-17" target="yncz-0Nj1sspW0BE_YOx-20">
          <mxGeometry x="-0.0051" y="-10" relative="1" as="geometry">
            <mxPoint x="569" y="599.2758620689656" as="targetPoint" />
            <mxPoint y="-20" as="offset" />
          </mxGeometry>
        </mxCell>
        <mxCell id="yncz-0Nj1sspW0BE_YOx-25" value="No" style="edgeStyle=orthogonalEdgeStyle;orthogonalLoop=1;jettySize=auto;html=1;exitX=0.5;exitY=1;exitDx=0;exitDy=0;entryX=0.808;entryY=1.024;entryDx=0;entryDy=0;entryPerimeter=0;fontColor=#000000;shadow=0;strokeWidth=1;labelBackgroundColor=none;endFill=0;endArrow=block;endSize=8;rounded=0;" edge="1" parent="WIyWlLk6GJQsqaUBKTNV-1" source="yncz-0Nj1sspW0BE_YOx-17" target="yncz-0Nj1sspW0BE_YOx-11">
          <mxGeometry x="-0.1358" y="-10" relative="1" as="geometry">
            <mxPoint as="offset" />
          </mxGeometry>
        </mxCell>
        <mxCell id="yncz-0Nj1sspW0BE_YOx-17" value="Forget Password" style="rhombus;whiteSpace=wrap;html=1;rounded=1;shadow=0;sketch=0;" vertex="1" parent="WIyWlLk6GJQsqaUBKTNV-1">
          <mxGeometry x="449" y="559" width="80" height="80" as="geometry" />
        </mxCell>
        <mxCell id="yncz-0Nj1sspW0BE_YOx-24" value="Yes" style="edgeStyle=orthogonalEdgeStyle;rounded=0;orthogonalLoop=1;jettySize=auto;html=1;exitX=0.5;exitY=0;exitDx=0;exitDy=0;entryX=0.75;entryY=0;entryDx=0;entryDy=0;fontColor=#000000;shadow=0;strokeWidth=1;labelBackgroundColor=none;endFill=0;endArrow=block;endSize=8;verticalAlign=bottom;" edge="1" parent="WIyWlLk6GJQsqaUBKTNV-1" source="yncz-0Nj1sspW0BE_YOx-20" target="yncz-0Nj1sspW0BE_YOx-11">
          <mxGeometry x="-0.0342" y="-10" relative="1" as="geometry">
            <mxPoint as="offset" />
          </mxGeometry>
        </mxCell>
        <mxCell id="yncz-0Nj1sspW0BE_YOx-20" value="Recovery" style="rounded=1;whiteSpace=wrap;html=1;" vertex="1" parent="WIyWlLk6GJQsqaUBKTNV-1">
          <mxGeometry x="579" y="579" width="120" height="40" as="geometry" />
        </mxCell>
        <mxCell id="yncz-0Nj1sspW0BE_YOx-26" value="Home" style="rounded=1;whiteSpace=wrap;html=1;fontSize=12;glass=0;strokeWidth=1;shadow=0;fillColor=#dae8fc;strokeColor=#6c8ebf;" vertex="1" parent="WIyWlLk6GJQsqaUBKTNV-1">
          <mxGeometry x="349" y="719" width="120" height="40" as="geometry" />
        </mxCell>
      </root>
    </mxGraphModel>
  </diagram>
  <diagram id="ipG8nkqJU_YdMBHSPsy5" name="Home page">
    <mxGraphModel dx="1673" dy="934" grid="1" gridSize="10" guides="1" tooltips="1" connect="1" arrows="1" fold="1" page="1" pageScale="1" pageWidth="827" pageHeight="1169" math="0" shadow="0">
      <root>
        <mxCell id="KGvp3Xdatoy10leqR6Ec-0" />
        <mxCell id="KGvp3Xdatoy10leqR6Ec-1" parent="KGvp3Xdatoy10leqR6Ec-0" />
        <mxCell id="KGvp3Xdatoy10leqR6Ec-7" style="edgeStyle=orthogonalEdgeStyle;rounded=0;jumpStyle=none;orthogonalLoop=1;jettySize=auto;html=1;exitX=0.5;exitY=1;exitDx=0;exitDy=0;entryX=0.5;entryY=0;entryDx=0;entryDy=0;fontColor=#000000;shadow=0;verticalAlign=bottom;strokeWidth=1;labelBackgroundColor=none;endFill=0;endArrow=block;endSize=8;" edge="1" parent="KGvp3Xdatoy10leqR6Ec-1" source="KGvp3Xdatoy10leqR6Ec-2" target="KGvp3Xdatoy10leqR6Ec-4">
          <mxGeometry relative="1" as="geometry" />
        </mxCell>
        <mxCell id="KGvp3Xdatoy10leqR6Ec-8" style="edgeStyle=orthogonalEdgeStyle;rounded=0;jumpStyle=none;orthogonalLoop=1;jettySize=auto;html=1;exitX=0.75;exitY=1;exitDx=0;exitDy=0;entryX=0.5;entryY=0;entryDx=0;entryDy=0;fontColor=#000000;shadow=0;verticalAlign=bottom;strokeWidth=1;labelBackgroundColor=none;endFill=0;endArrow=block;endSize=8;" edge="1" parent="KGvp3Xdatoy10leqR6Ec-1" source="KGvp3Xdatoy10leqR6Ec-2" target="KGvp3Xdatoy10leqR6Ec-5">
          <mxGeometry relative="1" as="geometry" />
        </mxCell>
        <mxCell id="KGvp3Xdatoy10leqR6Ec-9" style="edgeStyle=orthogonalEdgeStyle;rounded=0;jumpStyle=none;orthogonalLoop=1;jettySize=auto;html=1;exitX=0.25;exitY=1;exitDx=0;exitDy=0;entryX=0.5;entryY=0;entryDx=0;entryDy=0;fontColor=#000000;shadow=0;verticalAlign=bottom;strokeWidth=1;labelBackgroundColor=none;endFill=0;endArrow=block;endSize=8;" edge="1" parent="KGvp3Xdatoy10leqR6Ec-1" source="KGvp3Xdatoy10leqR6Ec-2" target="KGvp3Xdatoy10leqR6Ec-3">
          <mxGeometry relative="1" as="geometry" />
        </mxCell>
        <mxCell id="KGvp3Xdatoy10leqR6Ec-2" value="Home" style="rounded=1;whiteSpace=wrap;html=1;fontSize=12;glass=0;strokeWidth=1;shadow=0;fillColor=#dae8fc;strokeColor=#6c8ebf;" vertex="1" parent="KGvp3Xdatoy10leqR6Ec-1">
          <mxGeometry x="366" y="245" width="120" height="40" as="geometry" />
        </mxCell>
        <mxCell id="KGvp3Xdatoy10leqR6Ec-13" style="edgeStyle=orthogonalEdgeStyle;rounded=0;jumpStyle=none;orthogonalLoop=1;jettySize=auto;html=1;exitX=0.5;exitY=1;exitDx=0;exitDy=0;entryX=0.5;entryY=0;entryDx=0;entryDy=0;fontFamily=Helvetica;fontColor=#000000;shadow=0;verticalAlign=bottom;strokeWidth=1;labelBackgroundColor=none;endFill=0;endArrow=block;endSize=8;" edge="1" parent="KGvp3Xdatoy10leqR6Ec-1" source="KGvp3Xdatoy10leqR6Ec-3" target="KGvp3Xdatoy10leqR6Ec-10">
          <mxGeometry relative="1" as="geometry" />
        </mxCell>
        <mxCell id="KGvp3Xdatoy10leqR6Ec-3" value="Make prescription" style="rounded=1;whiteSpace=wrap;html=1;fontSize=12;glass=0;strokeWidth=1;shadow=0;fillColor=#dae8fc;strokeColor=#6c8ebf;" vertex="1" parent="KGvp3Xdatoy10leqR6Ec-1">
          <mxGeometry x="166" y="325" width="120" height="40" as="geometry" />
        </mxCell>
        <mxCell id="KGvp3Xdatoy10leqR6Ec-26" style="edgeStyle=orthogonalEdgeStyle;rounded=0;jumpStyle=none;orthogonalLoop=1;jettySize=auto;html=1;exitX=0.5;exitY=1;exitDx=0;exitDy=0;entryX=0.5;entryY=0;entryDx=0;entryDy=0;fontFamily=Helvetica;fontColor=#000000;shadow=0;strokeWidth=1;labelBackgroundColor=none;endFill=0;endArrow=block;endSize=8;" edge="1" parent="KGvp3Xdatoy10leqR6Ec-1" source="KGvp3Xdatoy10leqR6Ec-4" target="KGvp3Xdatoy10leqR6Ec-23">
          <mxGeometry relative="1" as="geometry" />
        </mxCell>
        <mxCell id="KGvp3Xdatoy10leqR6Ec-4" value="Past prescriptions" style="rounded=1;whiteSpace=wrap;html=1;fontSize=12;glass=0;strokeWidth=1;shadow=0;fillColor=#dae8fc;strokeColor=#6c8ebf;" vertex="1" parent="KGvp3Xdatoy10leqR6Ec-1">
          <mxGeometry x="366" y="325" width="120" height="40" as="geometry" />
        </mxCell>
        <mxCell id="KGvp3Xdatoy10leqR6Ec-29" style="edgeStyle=orthogonalEdgeStyle;rounded=0;jumpStyle=none;orthogonalLoop=1;jettySize=auto;html=1;exitX=0.5;exitY=1;exitDx=0;exitDy=0;entryX=0.5;entryY=0;entryDx=0;entryDy=0;fontFamily=Helvetica;fontColor=#000000;shadow=0;strokeWidth=1;labelBackgroundColor=none;endFill=0;endArrow=block;endSize=8;" edge="1" parent="KGvp3Xdatoy10leqR6Ec-1" source="KGvp3Xdatoy10leqR6Ec-5" target="KGvp3Xdatoy10leqR6Ec-28">
          <mxGeometry relative="1" as="geometry">
            <Array as="points">
              <mxPoint x="652" y="365" />
              <mxPoint x="652" y="385" />
              <mxPoint x="712" y="385" />
            </Array>
          </mxGeometry>
        </mxCell>
        <mxCell id="KGvp3Xdatoy10leqR6Ec-30" style="edgeStyle=orthogonalEdgeStyle;rounded=0;jumpStyle=none;orthogonalLoop=1;jettySize=auto;html=1;exitX=0.25;exitY=1;exitDx=0;exitDy=0;fontFamily=Helvetica;fontColor=#000000;shadow=0;strokeWidth=1;labelBackgroundColor=none;endFill=0;endArrow=block;endSize=8;" edge="1" parent="KGvp3Xdatoy10leqR6Ec-1" source="KGvp3Xdatoy10leqR6Ec-5" target="KGvp3Xdatoy10leqR6Ec-27">
          <mxGeometry relative="1" as="geometry">
            <Array as="points">
              <mxPoint x="602" y="365" />
              <mxPoint x="602" y="385" />
              <mxPoint x="552" y="385" />
            </Array>
          </mxGeometry>
        </mxCell>
        <mxCell id="KGvp3Xdatoy10leqR6Ec-5" value="Profile" style="rounded=1;whiteSpace=wrap;html=1;fontSize=12;glass=0;strokeWidth=1;shadow=0;fillColor=#dae8fc;strokeColor=#6c8ebf;" vertex="1" parent="KGvp3Xdatoy10leqR6Ec-1">
          <mxGeometry x="566" y="325" width="120" height="40" as="geometry" />
        </mxCell>
        <mxCell id="KGvp3Xdatoy10leqR6Ec-14" style="edgeStyle=orthogonalEdgeStyle;rounded=0;jumpStyle=none;orthogonalLoop=1;jettySize=auto;html=1;exitX=0.5;exitY=1;exitDx=0;exitDy=0;fontFamily=Helvetica;fontColor=#000000;shadow=0;verticalAlign=bottom;strokeWidth=1;labelBackgroundColor=none;endFill=0;endArrow=block;endSize=8;" edge="1" parent="KGvp3Xdatoy10leqR6Ec-1" source="KGvp3Xdatoy10leqR6Ec-10" target="KGvp3Xdatoy10leqR6Ec-12">
          <mxGeometry relative="1" as="geometry" />
        </mxCell>
        <mxCell id="KGvp3Xdatoy10leqR6Ec-10" value="Add medicine" style="rounded=1;whiteSpace=wrap;html=1;" vertex="1" parent="KGvp3Xdatoy10leqR6Ec-1">
          <mxGeometry x="166" y="405" width="120" height="40" as="geometry" />
        </mxCell>
        <mxCell id="KGvp3Xdatoy10leqR6Ec-15" value="Yes" style="edgeStyle=orthogonalEdgeStyle;rounded=0;jumpStyle=none;orthogonalLoop=1;jettySize=auto;html=1;exitX=0;exitY=0.5;exitDx=0;exitDy=0;entryX=0;entryY=0.5;entryDx=0;entryDy=0;fontFamily=Helvetica;fontColor=#000000;shadow=0;verticalAlign=middle;strokeWidth=1;labelBackgroundColor=none;endFill=0;endArrow=block;endSize=8;" edge="1" parent="KGvp3Xdatoy10leqR6Ec-1" source="KGvp3Xdatoy10leqR6Ec-12" target="KGvp3Xdatoy10leqR6Ec-10">
          <mxGeometry x="0.125" y="14" relative="1" as="geometry">
            <mxPoint as="offset" />
          </mxGeometry>
        </mxCell>
        <mxCell id="KGvp3Xdatoy10leqR6Ec-18" value="No" style="edgeStyle=orthogonalEdgeStyle;rounded=0;jumpStyle=none;orthogonalLoop=1;jettySize=auto;html=1;exitX=0.5;exitY=1;exitDx=0;exitDy=0;entryX=0.5;entryY=0;entryDx=0;entryDy=0;fontFamily=Helvetica;fontColor=#000000;shadow=0;strokeWidth=1;labelBackgroundColor=none;endFill=0;endArrow=block;endSize=8;" edge="1" parent="KGvp3Xdatoy10leqR6Ec-1" source="KGvp3Xdatoy10leqR6Ec-12" target="KGvp3Xdatoy10leqR6Ec-17">
          <mxGeometry y="16" relative="1" as="geometry">
            <mxPoint as="offset" />
          </mxGeometry>
        </mxCell>
        <mxCell id="KGvp3Xdatoy10leqR6Ec-12" value="More medicine?" style="rhombus;whiteSpace=wrap;html=1;rounded=1;shadow=0;sketch=0;fontFamily=Helvetica;spacing=2;" vertex="1" parent="KGvp3Xdatoy10leqR6Ec-1">
          <mxGeometry x="186" y="485" width="80" height="80" as="geometry" />
        </mxCell>
        <mxCell id="KGvp3Xdatoy10leqR6Ec-21" style="edgeStyle=orthogonalEdgeStyle;rounded=0;jumpStyle=none;orthogonalLoop=1;jettySize=auto;html=1;exitX=0.75;exitY=1;exitDx=0;exitDy=0;fontFamily=Helvetica;fontColor=#000000;shadow=0;strokeWidth=1;labelBackgroundColor=none;endFill=0;endArrow=block;endSize=8;" edge="1" parent="KGvp3Xdatoy10leqR6Ec-1" source="KGvp3Xdatoy10leqR6Ec-17" target="KGvp3Xdatoy10leqR6Ec-20">
          <mxGeometry relative="1" as="geometry" />
        </mxCell>
        <mxCell id="KGvp3Xdatoy10leqR6Ec-22" style="edgeStyle=orthogonalEdgeStyle;rounded=0;jumpStyle=none;orthogonalLoop=1;jettySize=auto;html=1;exitX=0.25;exitY=1;exitDx=0;exitDy=0;entryX=0.5;entryY=0;entryDx=0;entryDy=0;fontFamily=Helvetica;fontColor=#000000;shadow=0;strokeWidth=1;labelBackgroundColor=none;endFill=0;endArrow=block;endSize=8;" edge="1" parent="KGvp3Xdatoy10leqR6Ec-1" source="KGvp3Xdatoy10leqR6Ec-17" target="KGvp3Xdatoy10leqR6Ec-19">
          <mxGeometry relative="1" as="geometry" />
        </mxCell>
        <mxCell id="KGvp3Xdatoy10leqR6Ec-32" style="edgeStyle=orthogonalEdgeStyle;rounded=0;jumpStyle=none;orthogonalLoop=1;jettySize=auto;html=1;entryX=0;entryY=0.5;entryDx=0;entryDy=0;fontFamily=Helvetica;fontColor=#000000;dashed=1;endArrow=oval;endFill=1;" edge="1" parent="KGvp3Xdatoy10leqR6Ec-1" source="KGvp3Xdatoy10leqR6Ec-17" target="KGvp3Xdatoy10leqR6Ec-31">
          <mxGeometry relative="1" as="geometry">
            <Array as="points">
              <mxPoint x="56" y="625" />
              <mxPoint x="56" y="850" />
            </Array>
          </mxGeometry>
        </mxCell>
        <mxCell id="KGvp3Xdatoy10leqR6Ec-17" value="Send Prescription" style="rounded=1;whiteSpace=wrap;html=1;" vertex="1" parent="KGvp3Xdatoy10leqR6Ec-1">
          <mxGeometry x="166" y="605" width="120" height="40" as="geometry" />
        </mxCell>
        <mxCell id="KGvp3Xdatoy10leqR6Ec-19" value="Send Link" style="rounded=1;whiteSpace=wrap;html=1;fontSize=12;glass=0;strokeWidth=1;shadow=0;fillColor=#dae8fc;strokeColor=#6c8ebf;" vertex="1" parent="KGvp3Xdatoy10leqR6Ec-1">
          <mxGeometry x="86" y="685" width="120" height="40" as="geometry" />
        </mxCell>
        <mxCell id="KGvp3Xdatoy10leqR6Ec-20" value="Scan QR code" style="rounded=1;whiteSpace=wrap;html=1;fontSize=12;glass=0;strokeWidth=1;shadow=0;fillColor=#dae8fc;strokeColor=#6c8ebf;" vertex="1" parent="KGvp3Xdatoy10leqR6Ec-1">
          <mxGeometry x="246" y="685" width="120" height="40" as="geometry" />
        </mxCell>
        <mxCell id="KGvp3Xdatoy10leqR6Ec-25" style="edgeStyle=orthogonalEdgeStyle;rounded=0;jumpStyle=none;orthogonalLoop=1;jettySize=auto;html=1;exitX=0.5;exitY=1;exitDx=0;exitDy=0;entryX=0.5;entryY=0;entryDx=0;entryDy=0;fontFamily=Helvetica;fontColor=#000000;shadow=0;strokeWidth=1;labelBackgroundColor=none;endFill=0;endArrow=block;endSize=8;" edge="1" parent="KGvp3Xdatoy10leqR6Ec-1" source="KGvp3Xdatoy10leqR6Ec-23" target="KGvp3Xdatoy10leqR6Ec-24">
          <mxGeometry relative="1" as="geometry" />
        </mxCell>
        <mxCell id="KGvp3Xdatoy10leqR6Ec-23" value="Select&lt;br&gt;patient" style="rhombus;whiteSpace=wrap;html=1;rounded=1;shadow=0;sketch=0;fontFamily=Helvetica;" vertex="1" parent="KGvp3Xdatoy10leqR6Ec-1">
          <mxGeometry x="386" y="405" width="80" height="80" as="geometry" />
        </mxCell>
        <mxCell id="KGvp3Xdatoy10leqR6Ec-24" value="View Data" style="rounded=1;whiteSpace=wrap;html=1;" vertex="1" parent="KGvp3Xdatoy10leqR6Ec-1">
          <mxGeometry x="366" y="525" width="120" height="40" as="geometry" />
        </mxCell>
        <mxCell id="KGvp3Xdatoy10leqR6Ec-27" value="Edit profile" style="rounded=1;whiteSpace=wrap;html=1;" vertex="1" parent="KGvp3Xdatoy10leqR6Ec-1">
          <mxGeometry x="492" y="405" width="120" height="40" as="geometry" />
        </mxCell>
        <mxCell id="KGvp3Xdatoy10leqR6Ec-28" value="Share card" style="rounded=1;whiteSpace=wrap;html=1;" vertex="1" parent="KGvp3Xdatoy10leqR6Ec-1">
          <mxGeometry x="652" y="405" width="120" height="40" as="geometry" />
        </mxCell>
        <mxCell id="KGvp3Xdatoy10leqR6Ec-31" value="&lt;h1&gt;How to do&lt;/h1&gt;&lt;p&gt;&lt;ol&gt;&lt;li&gt;Connect it to Firebase&lt;/li&gt;&lt;li&gt;Upload Data&lt;/li&gt;&lt;li&gt;Then receive back the key pointing to where the data has been stored&lt;/li&gt;&lt;li&gt;Share the key&lt;/li&gt;&lt;/ol&gt;&lt;/p&gt;" style="text;html=1;spacing=11;spacingTop=-20;whiteSpace=wrap;overflow=hidden;rounded=1;shadow=0;sketch=0;fontFamily=Helvetica;dashed=1;glass=0;strokeColor=#000000;" vertex="1" parent="KGvp3Xdatoy10leqR6Ec-1">
          <mxGeometry x="76" y="775" width="196" height="150" as="geometry" />
        </mxCell>
      </root>
    </mxGraphModel>
  </diagram>
</mxfile>
